<svg id="图层_1" data-name="图层 1" xmlns="http://www.w3.org/2000/svg" viewBox="0 0 188.78 171.35"><defs><style>.cls-1{fill:#606060;}</style></defs><title>icons</title><path class="cls-1" d="M171.56,46.71a3,3,0,0,0-4.18-.72c-.71.5-16.7,11.48-34.36-.55-9.55-17-1.14-30.53-.73-31.18a3,3,0,1,0-5-3.27A34.1,34.1,0,0,0,122.83,24a37.56,37.56,0,0,0,1.25,15.6A27.83,27.83,0,0,0,94.37,44c-7.37,6.42-12.2,18.08-7,33.27C76.9,71.62,63.18,69.89,54,80.9c-6.51,7.82-8.86,21-3.36,34-14.47-5.72-32.07,2-32.88,2.34a3,3,0,0,0,2.45,5.48c.18-.08,18.71-8.17,31-.91a53,53,0,0,0,5.06,2.63c.68.88,1.39,1.75,2.16,2.62,9.84,11.06.2,30.79.1,31a3,3,0,0,0,1.35,4,2.89,2.89,0,0,0,1.33.32,3,3,0,0,0,2.69-1.66c.43-.85,9.31-19,2.23-32.93a42.61,42.61,0,0,0,9.45,1.1c8.48,0,16.17-2.75,21.57-8.2,7.56-7.63,8.61-18.92,3.12-30.93A41.62,41.62,0,0,0,115,91.49a30,30,0,0,0,20.29-9.43,24.66,24.66,0,0,0,5.18-8.88,3.08,3.08,0,0,0,.48-1.73,24.22,24.22,0,0,0-1.81-16.26C156.41,61,170.68,51,170.86,50.88A3,3,0,0,0,171.56,46.71ZM92.43,87.76c7,11.53,7.13,22,.46,28.72-8,8-21.45,7.7-32.7,3.1a38.29,38.29,0,0,1-5.58-12.2l8.11,8.11A3,3,0,1,0,67,111.24L53.64,97.92a25.34,25.34,0,0,1,.58-4.18L70.15,109a3,3,0,0,0,4.15-4.34l-17.72-17a20.46,20.46,0,0,1,2-3c.12-.14.25-.26.37-.4l17.17,16.43a3,3,0,0,0,4.24-.09,3,3,0,0,0-.09-4.24L63.76,80.59a16.09,16.09,0,0,1,4.65-1.53L83.47,93.65a3,3,0,1,0,4.17-4.31l-10-9.64a34.59,34.59,0,0,1,8.69,3.85c1.75,1.06,3.51,2,5.27,2.87C91.9,86.86,92.15,87.31,92.43,87.76ZM131.49,54a19.87,19.87,0,0,1,4.18,11.2L121.79,52.1a3,3,0,1,0-4.13,4.35l16.79,15.89a19,19,0,0,1-2.28,4.08L113.81,58.5a3,3,0,0,0-4.19,4.29L128,80.69a21.32,21.32,0,0,1-2.87,1.84L107.32,65.06a3,3,0,1,0-4.21,4.28l15.8,15.54a28.6,28.6,0,0,1-5,.71L99.09,71.19a3,3,0,1,0-4.18,4.31l9.5,9.21A45.86,45.86,0,0,1,96,81.83c-10.51-19.77-1-30.45,2.34-33.34a22,22,0,0,1,28.34-.3c.62.5,1.23,1,1.85,1.41A50,50,0,0,0,131.49,54Z"/></svg>